<?xml version="1.0" encoding="utf-8" standalone="no"?>
<!DOCTYPE svg PUBLIC "-//W3C//DTD SVG 1.1//EN"
  "http://www.w3.org/Graphics/SVG/1.1/DTD/svg11.dtd">
<!-- Created with matplotlib (http://matplotlib.org/) -->
<svg height="360pt" version="1.1" viewBox="0 0 360 360" width="360pt" xmlns="http://www.w3.org/2000/svg" xmlns:xlink="http://www.w3.org/1999/xlink">
 <defs>
  <style type="text/css">
*{stroke-linecap:butt;stroke-linejoin:round;}
  </style>
 </defs>
 <g id="figure_1">
  <g id="patch_1">
   <path d="M 0 360 
L 360 360 
L 360 0 
L 0 0 
z
" style="fill:#ffffff;"/>
  </g>
  <g id="axes_1">
   <g id="patch_2">
    <path d="M 45 320.4 
L 324 320.4 
L 324 43.2 
L 45 43.2 
z
" style="fill:#ffffff;"/>
   </g>
   <g id="matplotlib.axis_1">
    <g id="xtick_1">
     <g id="line2d_1">
      <defs>
       <path d="M 0 0 
L 0 3.5 
" id="m95ef538293" style="stroke:#000000;stroke-width:0.8;"/>
      </defs>
      <g>
       <use style="stroke:#000000;stroke-width:0.8;" x="57.681818" xlink:href="#m95ef538293" y="320.4"/>
      </g>
     </g>
     <g id="text_1">
      <!-- 0 -->
      <defs>
       <path d="M 31.78125 66.40625 
Q 24.171875 66.40625 20.328125 58.90625 
Q 16.5 51.421875 16.5 36.375 
Q 16.5 21.390625 20.328125 13.890625 
Q 24.171875 6.390625 31.78125 6.390625 
Q 39.453125 6.390625 43.28125 13.890625 
Q 47.125 21.390625 47.125 36.375 
Q 47.125 51.421875 43.28125 58.90625 
Q 39.453125 66.40625 31.78125 66.40625 
z
M 31.78125 74.21875 
Q 44.046875 74.21875 50.515625 64.515625 
Q 56.984375 54.828125 56.984375 36.375 
Q 56.984375 17.96875 50.515625 8.265625 
Q 44.046875 -1.421875 31.78125 -1.421875 
Q 19.53125 -1.421875 13.0625 8.265625 
Q 6.59375 17.96875 6.59375 36.375 
Q 6.59375 54.828125 13.0625 64.515625 
Q 19.53125 74.21875 31.78125 74.21875 
z
" id="DejaVuSans-30"/>
      </defs>
      <g transform="translate(54.500568 334.998438)scale(0.1 -0.1)">
       <use xlink:href="#DejaVuSans-30"/>
      </g>
     </g>
    </g>
    <g id="xtick_2">
     <g id="line2d_2">
      <g>
       <use style="stroke:#000000;stroke-width:0.8;" x="108.307837" xlink:href="#m95ef538293" y="320.4"/>
      </g>
     </g>
     <g id="text_2">
      <!-- 200 -->
      <defs>
       <path d="M 19.1875 8.296875 
L 53.609375 8.296875 
L 53.609375 0 
L 7.328125 0 
L 7.328125 8.296875 
Q 12.9375 14.109375 22.625 23.890625 
Q 32.328125 33.6875 34.8125 36.53125 
Q 39.546875 41.84375 41.421875 45.53125 
Q 43.3125 49.21875 43.3125 52.78125 
Q 43.3125 58.59375 39.234375 62.25 
Q 35.15625 65.921875 28.609375 65.921875 
Q 23.96875 65.921875 18.8125 64.3125 
Q 13.671875 62.703125 7.8125 59.421875 
L 7.8125 69.390625 
Q 13.765625 71.78125 18.9375 73 
Q 24.125 74.21875 28.421875 74.21875 
Q 39.75 74.21875 46.484375 68.546875 
Q 53.21875 62.890625 53.21875 53.421875 
Q 53.21875 48.921875 51.53125 44.890625 
Q 49.859375 40.875 45.40625 35.40625 
Q 44.1875 33.984375 37.640625 27.21875 
Q 31.109375 20.453125 19.1875 8.296875 
z
" id="DejaVuSans-32"/>
      </defs>
      <g transform="translate(98.764087 334.998438)scale(0.1 -0.1)">
       <use xlink:href="#DejaVuSans-32"/>
       <use x="63.623047" xlink:href="#DejaVuSans-30"/>
       <use x="127.246094" xlink:href="#DejaVuSans-30"/>
      </g>
     </g>
    </g>
    <g id="xtick_3">
     <g id="line2d_3">
      <g>
       <use style="stroke:#000000;stroke-width:0.8;" x="158.933856" xlink:href="#m95ef538293" y="320.4"/>
      </g>
     </g>
     <g id="text_3">
      <!-- 400 -->
      <defs>
       <path d="M 37.796875 64.3125 
L 12.890625 25.390625 
L 37.796875 25.390625 
z
M 35.203125 72.90625 
L 47.609375 72.90625 
L 47.609375 25.390625 
L 58.015625 25.390625 
L 58.015625 17.1875 
L 47.609375 17.1875 
L 47.609375 0 
L 37.796875 0 
L 37.796875 17.1875 
L 4.890625 17.1875 
L 4.890625 26.703125 
z
" id="DejaVuSans-34"/>
      </defs>
      <g transform="translate(149.390106 334.998438)scale(0.1 -0.1)">
       <use xlink:href="#DejaVuSans-34"/>
       <use x="63.623047" xlink:href="#DejaVuSans-30"/>
       <use x="127.246094" xlink:href="#DejaVuSans-30"/>
      </g>
     </g>
    </g>
    <g id="xtick_4">
     <g id="line2d_4">
      <g>
       <use style="stroke:#000000;stroke-width:0.8;" x="209.559875" xlink:href="#m95ef538293" y="320.4"/>
      </g>
     </g>
     <g id="text_4">
      <!-- 600 -->
      <defs>
       <path d="M 33.015625 40.375 
Q 26.375 40.375 22.484375 35.828125 
Q 18.609375 31.296875 18.609375 23.390625 
Q 18.609375 15.53125 22.484375 10.953125 
Q 26.375 6.390625 33.015625 6.390625 
Q 39.65625 6.390625 43.53125 10.953125 
Q 47.40625 15.53125 47.40625 23.390625 
Q 47.40625 31.296875 43.53125 35.828125 
Q 39.65625 40.375 33.015625 40.375 
z
M 52.59375 71.296875 
L 52.59375 62.3125 
Q 48.875 64.0625 45.09375 64.984375 
Q 41.3125 65.921875 37.59375 65.921875 
Q 27.828125 65.921875 22.671875 59.328125 
Q 17.53125 52.734375 16.796875 39.40625 
Q 19.671875 43.65625 24.015625 45.921875 
Q 28.375 48.1875 33.59375 48.1875 
Q 44.578125 48.1875 50.953125 41.515625 
Q 57.328125 34.859375 57.328125 23.390625 
Q 57.328125 12.15625 50.6875 5.359375 
Q 44.046875 -1.421875 33.015625 -1.421875 
Q 20.359375 -1.421875 13.671875 8.265625 
Q 6.984375 17.96875 6.984375 36.375 
Q 6.984375 53.65625 15.1875 63.9375 
Q 23.390625 74.21875 37.203125 74.21875 
Q 40.921875 74.21875 44.703125 73.484375 
Q 48.484375 72.75 52.59375 71.296875 
z
" id="DejaVuSans-36"/>
      </defs>
      <g transform="translate(200.016125 334.998438)scale(0.1 -0.1)">
       <use xlink:href="#DejaVuSans-36"/>
       <use x="63.623047" xlink:href="#DejaVuSans-30"/>
       <use x="127.246094" xlink:href="#DejaVuSans-30"/>
      </g>
     </g>
    </g>
    <g id="xtick_5">
     <g id="line2d_5">
      <g>
       <use style="stroke:#000000;stroke-width:0.8;" x="260.185894" xlink:href="#m95ef538293" y="320.4"/>
      </g>
     </g>
     <g id="text_5">
      <!-- 800 -->
      <defs>
       <path d="M 31.78125 34.625 
Q 24.75 34.625 20.71875 30.859375 
Q 16.703125 27.09375 16.703125 20.515625 
Q 16.703125 13.921875 20.71875 10.15625 
Q 24.75 6.390625 31.78125 6.390625 
Q 38.8125 6.390625 42.859375 10.171875 
Q 46.921875 13.96875 46.921875 20.515625 
Q 46.921875 27.09375 42.890625 30.859375 
Q 38.875 34.625 31.78125 34.625 
z
M 21.921875 38.8125 
Q 15.578125 40.375 12.03125 44.71875 
Q 8.5 49.078125 8.5 55.328125 
Q 8.5 64.0625 14.71875 69.140625 
Q 20.953125 74.21875 31.78125 74.21875 
Q 42.671875 74.21875 48.875 69.140625 
Q 55.078125 64.0625 55.078125 55.328125 
Q 55.078125 49.078125 51.53125 44.71875 
Q 48 40.375 41.703125 38.8125 
Q 48.828125 37.15625 52.796875 32.3125 
Q 56.78125 27.484375 56.78125 20.515625 
Q 56.78125 9.90625 50.3125 4.234375 
Q 43.84375 -1.421875 31.78125 -1.421875 
Q 19.734375 -1.421875 13.25 4.234375 
Q 6.78125 9.90625 6.78125 20.515625 
Q 6.78125 27.484375 10.78125 32.3125 
Q 14.796875 37.15625 21.921875 38.8125 
z
M 18.3125 54.390625 
Q 18.3125 48.734375 21.84375 45.5625 
Q 25.390625 42.390625 31.78125 42.390625 
Q 38.140625 42.390625 41.71875 45.5625 
Q 45.3125 48.734375 45.3125 54.390625 
Q 45.3125 60.0625 41.71875 63.234375 
Q 38.140625 66.40625 31.78125 66.40625 
Q 25.390625 66.40625 21.84375 63.234375 
Q 18.3125 60.0625 18.3125 54.390625 
z
" id="DejaVuSans-38"/>
      </defs>
      <g transform="translate(250.642144 334.998438)scale(0.1 -0.1)">
       <use xlink:href="#DejaVuSans-38"/>
       <use x="63.623047" xlink:href="#DejaVuSans-30"/>
       <use x="127.246094" xlink:href="#DejaVuSans-30"/>
      </g>
     </g>
    </g>
    <g id="xtick_6">
     <g id="line2d_6">
      <g>
       <use style="stroke:#000000;stroke-width:0.8;" x="310.811913" xlink:href="#m95ef538293" y="320.4"/>
      </g>
     </g>
     <g id="text_6">
      <!-- 1000 -->
      <defs>
       <path d="M 12.40625 8.296875 
L 28.515625 8.296875 
L 28.515625 63.921875 
L 10.984375 60.40625 
L 10.984375 69.390625 
L 28.421875 72.90625 
L 38.28125 72.90625 
L 38.28125 8.296875 
L 54.390625 8.296875 
L 54.390625 0 
L 12.40625 0 
z
" id="DejaVuSans-31"/>
      </defs>
      <g transform="translate(298.086913 334.998438)scale(0.1 -0.1)">
       <use xlink:href="#DejaVuSans-31"/>
       <use x="63.623047" xlink:href="#DejaVuSans-30"/>
       <use x="127.246094" xlink:href="#DejaVuSans-30"/>
       <use x="190.869141" xlink:href="#DejaVuSans-30"/>
      </g>
     </g>
    </g>
    <g id="text_7">
     <!-- time  $t$ (ps) -->
     <defs>
      <path d="M 18.3125 70.21875 
L 18.3125 54.6875 
L 36.8125 54.6875 
L 36.8125 47.703125 
L 18.3125 47.703125 
L 18.3125 18.015625 
Q 18.3125 11.328125 20.140625 9.421875 
Q 21.96875 7.515625 27.59375 7.515625 
L 36.8125 7.515625 
L 36.8125 0 
L 27.59375 0 
Q 17.1875 0 13.234375 3.875 
Q 9.28125 7.765625 9.28125 18.015625 
L 9.28125 47.703125 
L 2.6875 47.703125 
L 2.6875 54.6875 
L 9.28125 54.6875 
L 9.28125 70.21875 
z
" id="DejaVuSans-74"/>
      <path d="M 9.421875 54.6875 
L 18.40625 54.6875 
L 18.40625 0 
L 9.421875 0 
z
M 9.421875 75.984375 
L 18.40625 75.984375 
L 18.40625 64.59375 
L 9.421875 64.59375 
z
" id="DejaVuSans-69"/>
      <path d="M 52 44.1875 
Q 55.375 50.25 60.0625 53.125 
Q 64.75 56 71.09375 56 
Q 79.640625 56 84.28125 50.015625 
Q 88.921875 44.046875 88.921875 33.015625 
L 88.921875 0 
L 79.890625 0 
L 79.890625 32.71875 
Q 79.890625 40.578125 77.09375 44.375 
Q 74.3125 48.1875 68.609375 48.1875 
Q 61.625 48.1875 57.5625 43.546875 
Q 53.515625 38.921875 53.515625 30.90625 
L 53.515625 0 
L 44.484375 0 
L 44.484375 32.71875 
Q 44.484375 40.625 41.703125 44.40625 
Q 38.921875 48.1875 33.109375 48.1875 
Q 26.21875 48.1875 22.15625 43.53125 
Q 18.109375 38.875 18.109375 30.90625 
L 18.109375 0 
L 9.078125 0 
L 9.078125 54.6875 
L 18.109375 54.6875 
L 18.109375 46.1875 
Q 21.1875 51.21875 25.484375 53.609375 
Q 29.78125 56 35.6875 56 
Q 41.65625 56 45.828125 52.96875 
Q 50 49.953125 52 44.1875 
z
" id="DejaVuSans-6d"/>
      <path d="M 56.203125 29.59375 
L 56.203125 25.203125 
L 14.890625 25.203125 
Q 15.484375 15.921875 20.484375 11.0625 
Q 25.484375 6.203125 34.421875 6.203125 
Q 39.59375 6.203125 44.453125 7.46875 
Q 49.3125 8.734375 54.109375 11.28125 
L 54.109375 2.78125 
Q 49.265625 0.734375 44.1875 -0.34375 
Q 39.109375 -1.421875 33.890625 -1.421875 
Q 20.796875 -1.421875 13.15625 6.1875 
Q 5.515625 13.8125 5.515625 26.8125 
Q 5.515625 40.234375 12.765625 48.109375 
Q 20.015625 56 32.328125 56 
Q 43.359375 56 49.78125 48.890625 
Q 56.203125 41.796875 56.203125 29.59375 
z
M 47.21875 32.234375 
Q 47.125 39.59375 43.09375 43.984375 
Q 39.0625 48.390625 32.421875 48.390625 
Q 24.90625 48.390625 20.390625 44.140625 
Q 15.875 39.890625 15.1875 32.171875 
z
" id="DejaVuSans-65"/>
      <path id="DejaVuSans-20"/>
      <path d="M 42.28125 54.6875 
L 40.921875 47.703125 
L 23 47.703125 
L 17.1875 18.015625 
Q 16.890625 16.359375 16.75 15.234375 
Q 16.609375 14.109375 16.609375 13.484375 
Q 16.609375 10.359375 18.484375 8.9375 
Q 20.359375 7.515625 24.515625 7.515625 
L 33.59375 7.515625 
L 32.078125 0 
L 23.484375 0 
Q 15.484375 0 11.546875 3.125 
Q 7.625 6.25 7.625 12.59375 
Q 7.625 13.71875 7.765625 15.0625 
Q 7.90625 16.40625 8.203125 18.015625 
L 14.015625 47.703125 
L 6.390625 47.703125 
L 7.8125 54.6875 
L 15.28125 54.6875 
L 18.3125 70.21875 
L 27.296875 70.21875 
L 24.3125 54.6875 
z
" id="DejaVuSans-Oblique-74"/>
      <path d="M 31 75.875 
Q 24.46875 64.65625 21.28125 53.65625 
Q 18.109375 42.671875 18.109375 31.390625 
Q 18.109375 20.125 21.3125 9.0625 
Q 24.515625 -2 31 -13.1875 
L 23.1875 -13.1875 
Q 15.875 -1.703125 12.234375 9.375 
Q 8.59375 20.453125 8.59375 31.390625 
Q 8.59375 42.28125 12.203125 53.3125 
Q 15.828125 64.359375 23.1875 75.875 
z
" id="DejaVuSans-28"/>
      <path d="M 18.109375 8.203125 
L 18.109375 -20.796875 
L 9.078125 -20.796875 
L 9.078125 54.6875 
L 18.109375 54.6875 
L 18.109375 46.390625 
Q 20.953125 51.265625 25.265625 53.625 
Q 29.59375 56 35.59375 56 
Q 45.5625 56 51.78125 48.09375 
Q 58.015625 40.1875 58.015625 27.296875 
Q 58.015625 14.40625 51.78125 6.484375 
Q 45.5625 -1.421875 35.59375 -1.421875 
Q 29.59375 -1.421875 25.265625 0.953125 
Q 20.953125 3.328125 18.109375 8.203125 
z
M 48.6875 27.296875 
Q 48.6875 37.203125 44.609375 42.84375 
Q 40.53125 48.484375 33.40625 48.484375 
Q 26.265625 48.484375 22.1875 42.84375 
Q 18.109375 37.203125 18.109375 27.296875 
Q 18.109375 17.390625 22.1875 11.75 
Q 26.265625 6.109375 33.40625 6.109375 
Q 40.53125 6.109375 44.609375 11.75 
Q 48.6875 17.390625 48.6875 27.296875 
z
" id="DejaVuSans-70"/>
      <path d="M 44.28125 53.078125 
L 44.28125 44.578125 
Q 40.484375 46.53125 36.375 47.5 
Q 32.28125 48.484375 27.875 48.484375 
Q 21.1875 48.484375 17.84375 46.4375 
Q 14.5 44.390625 14.5 40.28125 
Q 14.5 37.15625 16.890625 35.375 
Q 19.28125 33.59375 26.515625 31.984375 
L 29.59375 31.296875 
Q 39.15625 29.25 43.1875 25.515625 
Q 47.21875 21.78125 47.21875 15.09375 
Q 47.21875 7.46875 41.1875 3.015625 
Q 35.15625 -1.421875 24.609375 -1.421875 
Q 20.21875 -1.421875 15.453125 -0.5625 
Q 10.6875 0.296875 5.421875 2 
L 5.421875 11.28125 
Q 10.40625 8.6875 15.234375 7.390625 
Q 20.0625 6.109375 24.8125 6.109375 
Q 31.15625 6.109375 34.5625 8.28125 
Q 37.984375 10.453125 37.984375 14.40625 
Q 37.984375 18.0625 35.515625 20.015625 
Q 33.0625 21.96875 24.703125 23.78125 
L 21.578125 24.515625 
Q 13.234375 26.265625 9.515625 29.90625 
Q 5.8125 33.546875 5.8125 39.890625 
Q 5.8125 47.609375 11.28125 51.796875 
Q 16.75 56 26.8125 56 
Q 31.78125 56 36.171875 55.265625 
Q 40.578125 54.546875 44.28125 53.078125 
z
" id="DejaVuSans-73"/>
      <path d="M 8.015625 75.875 
L 15.828125 75.875 
Q 23.140625 64.359375 26.78125 53.3125 
Q 30.421875 42.28125 30.421875 31.390625 
Q 30.421875 20.453125 26.78125 9.375 
Q 23.140625 -1.703125 15.828125 -13.1875 
L 8.015625 -13.1875 
Q 14.5 -2 17.703125 9.0625 
Q 20.90625 20.125 20.90625 31.390625 
Q 20.90625 42.671875 17.703125 53.65625 
Q 14.5 64.65625 8.015625 75.875 
z
" id="DejaVuSans-29"/>
     </defs>
     <g transform="translate(156.75 348.678125)scale(0.1 -0.1)">
      <use transform="translate(0 0.015625)" xlink:href="#DejaVuSans-74"/>
      <use transform="translate(39.208984 0.015625)" xlink:href="#DejaVuSans-69"/>
      <use transform="translate(66.992188 0.015625)" xlink:href="#DejaVuSans-6d"/>
      <use transform="translate(164.404297 0.015625)" xlink:href="#DejaVuSans-65"/>
      <use transform="translate(225.927734 0.015625)" xlink:href="#DejaVuSans-20"/>
      <use transform="translate(257.714844 0.015625)" xlink:href="#DejaVuSans-20"/>
      <use transform="translate(289.501953 0.015625)" xlink:href="#DejaVuSans-Oblique-74"/>
      <use transform="translate(328.710938 0.015625)" xlink:href="#DejaVuSans-20"/>
      <use transform="translate(360.498047 0.015625)" xlink:href="#DejaVuSans-28"/>
      <use transform="translate(399.511719 0.015625)" xlink:href="#DejaVuSans-70"/>
      <use transform="translate(462.988281 0.015625)" xlink:href="#DejaVuSans-73"/>
      <use transform="translate(515.087891 0.015625)" xlink:href="#DejaVuSans-29"/>
     </g>
    </g>
   </g>
   <g id="matplotlib.axis_2">
    <g id="ytick_1">
     <g id="line2d_7">
      <defs>
       <path d="M 0 0 
L -3.5 0 
" id="m489948a39d" style="stroke:#000000;stroke-width:0.8;"/>
      </defs>
      <g>
       <use style="stroke:#000000;stroke-width:0.8;" x="45" xlink:href="#m489948a39d" y="307.800007"/>
      </g>
     </g>
     <g id="text_8">
      <!-- 0.0 -->
      <defs>
       <path d="M 10.6875 12.40625 
L 21 12.40625 
L 21 0 
L 10.6875 0 
z
" id="DejaVuSans-2e"/>
      </defs>
      <g transform="translate(22.096875 311.599225)scale(0.1 -0.1)">
       <use xlink:href="#DejaVuSans-30"/>
       <use x="63.623047" xlink:href="#DejaVuSans-2e"/>
       <use x="95.410156" xlink:href="#DejaVuSans-30"/>
      </g>
     </g>
    </g>
    <g id="ytick_2">
     <g id="line2d_8">
      <g>
       <use style="stroke:#000000;stroke-width:0.8;" x="45" xlink:href="#m489948a39d" y="254.524164"/>
      </g>
     </g>
     <g id="text_9">
      <!-- 0.5 -->
      <defs>
       <path d="M 10.796875 72.90625 
L 49.515625 72.90625 
L 49.515625 64.59375 
L 19.828125 64.59375 
L 19.828125 46.734375 
Q 21.96875 47.46875 24.109375 47.828125 
Q 26.265625 48.1875 28.421875 48.1875 
Q 40.625 48.1875 47.75 41.5 
Q 54.890625 34.8125 54.890625 23.390625 
Q 54.890625 11.625 47.5625 5.09375 
Q 40.234375 -1.421875 26.90625 -1.421875 
Q 22.3125 -1.421875 17.546875 -0.640625 
Q 12.796875 0.140625 7.71875 1.703125 
L 7.71875 11.625 
Q 12.109375 9.234375 16.796875 8.0625 
Q 21.484375 6.890625 26.703125 6.890625 
Q 35.15625 6.890625 40.078125 11.328125 
Q 45.015625 15.765625 45.015625 23.390625 
Q 45.015625 31 40.078125 35.4375 
Q 35.15625 39.890625 26.703125 39.890625 
Q 22.75 39.890625 18.8125 39.015625 
Q 14.890625 38.140625 10.796875 36.28125 
z
" id="DejaVuSans-35"/>
      </defs>
      <g transform="translate(22.096875 258.323382)scale(0.1 -0.1)">
       <use xlink:href="#DejaVuSans-30"/>
       <use x="63.623047" xlink:href="#DejaVuSans-2e"/>
       <use x="95.410156" xlink:href="#DejaVuSans-35"/>
      </g>
     </g>
    </g>
    <g id="ytick_3">
     <g id="line2d_9">
      <g>
       <use style="stroke:#000000;stroke-width:0.8;" x="45" xlink:href="#m489948a39d" y="201.248321"/>
      </g>
     </g>
     <g id="text_10">
      <!-- 1.0 -->
      <g transform="translate(22.096875 205.047539)scale(0.1 -0.1)">
       <use xlink:href="#DejaVuSans-31"/>
       <use x="63.623047" xlink:href="#DejaVuSans-2e"/>
       <use x="95.410156" xlink:href="#DejaVuSans-30"/>
      </g>
     </g>
    </g>
    <g id="ytick_4">
     <g id="line2d_10">
      <g>
       <use style="stroke:#000000;stroke-width:0.8;" x="45" xlink:href="#m489948a39d" y="147.972477"/>
      </g>
     </g>
     <g id="text_11">
      <!-- 1.5 -->
      <g transform="translate(22.096875 151.771696)scale(0.1 -0.1)">
       <use xlink:href="#DejaVuSans-31"/>
       <use x="63.623047" xlink:href="#DejaVuSans-2e"/>
       <use x="95.410156" xlink:href="#DejaVuSans-35"/>
      </g>
     </g>
    </g>
    <g id="ytick_5">
     <g id="line2d_11">
      <g>
       <use style="stroke:#000000;stroke-width:0.8;" x="45" xlink:href="#m489948a39d" y="94.696634"/>
      </g>
     </g>
     <g id="text_12">
      <!-- 2.0 -->
      <g transform="translate(22.096875 98.495853)scale(0.1 -0.1)">
       <use xlink:href="#DejaVuSans-32"/>
       <use x="63.623047" xlink:href="#DejaVuSans-2e"/>
       <use x="95.410156" xlink:href="#DejaVuSans-30"/>
      </g>
     </g>
    </g>
    <g id="text_13">
     <!-- C$_\alpha$ RMSD from $t=0$, $\rho_{\mathrm{C}_\alpha}$ ($\AA$) -->
     <defs>
      <path d="M 64.40625 67.28125 
L 64.40625 56.890625 
Q 59.421875 61.53125 53.78125 63.8125 
Q 48.140625 66.109375 41.796875 66.109375 
Q 29.296875 66.109375 22.65625 58.46875 
Q 16.015625 50.828125 16.015625 36.375 
Q 16.015625 21.96875 22.65625 14.328125 
Q 29.296875 6.6875 41.796875 6.6875 
Q 48.140625 6.6875 53.78125 8.984375 
Q 59.421875 11.28125 64.40625 15.921875 
L 64.40625 5.609375 
Q 59.234375 2.09375 53.4375 0.328125 
Q 47.65625 -1.421875 41.21875 -1.421875 
Q 24.65625 -1.421875 15.125 8.703125 
Q 5.609375 18.84375 5.609375 36.375 
Q 5.609375 53.953125 15.125 64.078125 
Q 24.65625 74.21875 41.21875 74.21875 
Q 47.75 74.21875 53.53125 72.484375 
Q 59.328125 70.75 64.40625 67.28125 
z
" id="DejaVuSans-43"/>
      <path d="M 40.921875 25.4375 
L 40.96875 36.71875 
Q 41.015625 48.25 32.328125 48.296875 
Q 25.828125 48.34375 21.78125 42.921875 
Q 16.703125 36.234375 14.984375 27.296875 
Q 12.890625 16.546875 15.53125 11.421875 
Q 18.265625 6.203125 24.171875 6.203125 
Q 30.71875 6.203125 36.234375 16.609375 
z
M 33.84375 55.90625 
Q 49.078125 56.15625 48.875 40.375 
Q 48.875 40.375 56.5 54.6875 
L 64.5 54.6875 
L 48.734375 25.046875 
L 48.578125 14.359375 
Q 48.578125 11.96875 49.90625 9.96875 
Q 51.421875 7.625 52.984375 7.625 
L 57.328125 7.625 
L 55.859375 0 
L 50.4375 0 
Q 45.84375 0 42.53125 4.109375 
Q 40.96875 6.15625 40.921875 10.453125 
Q 37.75 5.21875 32.28125 0.78125 
Q 29.6875 -1.265625 22.703125 -1.21875 
Q 11.28125 -1.125 7.125 6.203125 
Q 2.875 13.8125 5.515625 27.296875 
Q 8.34375 41.796875 15.765625 48.390625 
Q 24.125 55.765625 33.84375 55.90625 
z
" id="DejaVuSans-Oblique-3b1"/>
      <path d="M 44.390625 34.1875 
Q 47.5625 33.109375 50.5625 29.59375 
Q 53.5625 26.078125 56.59375 19.921875 
L 66.609375 0 
L 56 0 
L 46.6875 18.703125 
Q 43.0625 26.03125 39.671875 28.421875 
Q 36.28125 30.8125 30.421875 30.8125 
L 19.671875 30.8125 
L 19.671875 0 
L 9.8125 0 
L 9.8125 72.90625 
L 32.078125 72.90625 
Q 44.578125 72.90625 50.734375 67.671875 
Q 56.890625 62.453125 56.890625 51.90625 
Q 56.890625 45.015625 53.6875 40.46875 
Q 50.484375 35.9375 44.390625 34.1875 
z
M 19.671875 64.796875 
L 19.671875 38.921875 
L 32.078125 38.921875 
Q 39.203125 38.921875 42.84375 42.21875 
Q 46.484375 45.515625 46.484375 51.90625 
Q 46.484375 58.296875 42.84375 61.546875 
Q 39.203125 64.796875 32.078125 64.796875 
z
" id="DejaVuSans-52"/>
      <path d="M 9.8125 72.90625 
L 24.515625 72.90625 
L 43.109375 23.296875 
L 61.8125 72.90625 
L 76.515625 72.90625 
L 76.515625 0 
L 66.890625 0 
L 66.890625 64.015625 
L 48.09375 14.015625 
L 38.1875 14.015625 
L 19.390625 64.015625 
L 19.390625 0 
L 9.8125 0 
z
" id="DejaVuSans-4d"/>
      <path d="M 53.515625 70.515625 
L 53.515625 60.890625 
Q 47.90625 63.578125 42.921875 64.890625 
Q 37.9375 66.21875 33.296875 66.21875 
Q 25.25 66.21875 20.875 63.09375 
Q 16.5 59.96875 16.5 54.203125 
Q 16.5 49.359375 19.40625 46.890625 
Q 22.3125 44.4375 30.421875 42.921875 
L 36.375 41.703125 
Q 47.40625 39.59375 52.65625 34.296875 
Q 57.90625 29 57.90625 20.125 
Q 57.90625 9.515625 50.796875 4.046875 
Q 43.703125 -1.421875 29.984375 -1.421875 
Q 24.8125 -1.421875 18.96875 -0.25 
Q 13.140625 0.921875 6.890625 3.21875 
L 6.890625 13.375 
Q 12.890625 10.015625 18.65625 8.296875 
Q 24.421875 6.59375 29.984375 6.59375 
Q 38.421875 6.59375 43.015625 9.90625 
Q 47.609375 13.234375 47.609375 19.390625 
Q 47.609375 24.75 44.3125 27.78125 
Q 41.015625 30.8125 33.5 32.328125 
L 27.484375 33.5 
Q 16.453125 35.6875 11.515625 40.375 
Q 6.59375 45.0625 6.59375 53.421875 
Q 6.59375 63.09375 13.40625 68.65625 
Q 20.21875 74.21875 32.171875 74.21875 
Q 37.3125 74.21875 42.625 73.28125 
Q 47.953125 72.359375 53.515625 70.515625 
z
" id="DejaVuSans-53"/>
      <path d="M 19.671875 64.796875 
L 19.671875 8.109375 
L 31.59375 8.109375 
Q 46.6875 8.109375 53.6875 14.9375 
Q 60.6875 21.78125 60.6875 36.53125 
Q 60.6875 51.171875 53.6875 57.984375 
Q 46.6875 64.796875 31.59375 64.796875 
z
M 9.8125 72.90625 
L 30.078125 72.90625 
Q 51.265625 72.90625 61.171875 64.09375 
Q 71.09375 55.28125 71.09375 36.53125 
Q 71.09375 17.671875 61.125 8.828125 
Q 51.171875 0 30.078125 0 
L 9.8125 0 
z
" id="DejaVuSans-44"/>
      <path d="M 37.109375 75.984375 
L 37.109375 68.5 
L 28.515625 68.5 
Q 23.6875 68.5 21.796875 66.546875 
Q 19.921875 64.59375 19.921875 59.515625 
L 19.921875 54.6875 
L 34.71875 54.6875 
L 34.71875 47.703125 
L 19.921875 47.703125 
L 19.921875 0 
L 10.890625 0 
L 10.890625 47.703125 
L 2.296875 47.703125 
L 2.296875 54.6875 
L 10.890625 54.6875 
L 10.890625 58.5 
Q 10.890625 67.625 15.140625 71.796875 
Q 19.390625 75.984375 28.609375 75.984375 
z
" id="DejaVuSans-66"/>
      <path d="M 41.109375 46.296875 
Q 39.59375 47.171875 37.8125 47.578125 
Q 36.03125 48 33.890625 48 
Q 26.265625 48 22.1875 43.046875 
Q 18.109375 38.09375 18.109375 28.8125 
L 18.109375 0 
L 9.078125 0 
L 9.078125 54.6875 
L 18.109375 54.6875 
L 18.109375 46.1875 
Q 20.953125 51.171875 25.484375 53.578125 
Q 30.03125 56 36.53125 56 
Q 37.453125 56 38.578125 55.875 
Q 39.703125 55.765625 41.0625 55.515625 
z
" id="DejaVuSans-72"/>
      <path d="M 30.609375 48.390625 
Q 23.390625 48.390625 19.1875 42.75 
Q 14.984375 37.109375 14.984375 27.296875 
Q 14.984375 17.484375 19.15625 11.84375 
Q 23.34375 6.203125 30.609375 6.203125 
Q 37.796875 6.203125 41.984375 11.859375 
Q 46.1875 17.53125 46.1875 27.296875 
Q 46.1875 37.015625 41.984375 42.703125 
Q 37.796875 48.390625 30.609375 48.390625 
z
M 30.609375 56 
Q 42.328125 56 49.015625 48.375 
Q 55.71875 40.765625 55.71875 27.296875 
Q 55.71875 13.875 49.015625 6.21875 
Q 42.328125 -1.421875 30.609375 -1.421875 
Q 18.84375 -1.421875 12.171875 6.21875 
Q 5.515625 13.875 5.515625 27.296875 
Q 5.515625 40.765625 12.171875 48.375 
Q 18.84375 56 30.609375 56 
z
" id="DejaVuSans-6f"/>
      <path d="M 10.59375 45.40625 
L 73.1875 45.40625 
L 73.1875 37.203125 
L 10.59375 37.203125 
z
M 10.59375 25.484375 
L 73.1875 25.484375 
L 73.1875 17.1875 
L 10.59375 17.1875 
z
" id="DejaVuSans-3d"/>
      <path d="M 11.71875 12.40625 
L 22.015625 12.40625 
L 22.015625 4 
L 14.015625 -11.625 
L 7.71875 -11.625 
L 11.71875 4 
z
" id="DejaVuSans-2c"/>
      <path d="M 18.796875 44.921875 
Q 22.703125 49.90625 30.953125 54.296875 
Q 34.1875 56 43.0625 56 
Q 53.03125 56 57.71875 48.09375 
Q 62.40625 40.1875 59.90625 27.296875 
Q 57.375 14.40625 49.609375 6.484375 
Q 41.84375 -1.421875 31.890625 -1.421875 
Q 25.875 -1.421875 22.015625 0.984375 
Q 18.171875 3.328125 16.3125 8.203125 
L 10.640625 -20.796875 
L 1.609375 -20.796875 
L 10.890625 26.8125 
Q 13.09375 38.09375 18.796875 44.921875 
z
M 50.59375 27.296875 
Q 52.484375 37.203125 49.515625 42.875 
Q 46.53125 48.484375 39.40625 48.484375 
Q 32.28125 48.484375 27.09375 42.875 
Q 21.921875 37.203125 20.015625 27.296875 
Q 18.0625 17.390625 21.046875 11.71875 
Q 24.03125 6.109375 31.15625 6.109375 
Q 38.28125 6.109375 43.453125 11.71875 
Q 48.640625 17.390625 50.59375 27.296875 
z
" id="DejaVuSans-Oblique-3c1"/>
      <path d="M 49.8125 79.390625 
Q 49.8125 82.46875 47.625 84.640625 
Q 45.453125 86.8125 42.390625 86.8125 
Q 39.265625 86.8125 37.140625 84.6875 
Q 35.015625 82.5625 35.015625 79.390625 
Q 35.015625 76.3125 37.140625 74.15625 
Q 39.265625 72.015625 42.390625 72.015625 
Q 45.453125 72.015625 47.625 74.15625 
Q 49.8125 76.3125 49.8125 79.390625 
z
M 34.421875 68.703125 
Q 31.78125 70.515625 30.390625 73.265625 
Q 29 76.03125 29 79.390625 
Q 29 84.96875 32.90625 88.890625 
Q 36.8125 92.828125 42.390625 92.828125 
Q 47.953125 92.828125 51.875 88.890625 
Q 55.8125 84.96875 55.8125 79.390625 
Q 55.8125 75.53125 54.03125 72.546875 
Q 52.25 69.578125 48.875 67.828125 
L 61.53125 0 
L 51.21875 0 
L 48.1875 18.703125 
L 15.375 18.703125 
L 5.078125 0 
L -5.328125 0 
z
M 40.375 63.1875 
L 19.921875 26.90625 
L 46.6875 26.90625 
z
" id="DejaVuSans-Oblique-c5"/>
     </defs>
     <g transform="translate(15.196875 250)rotate(-90)scale(0.1 -0.1)">
      <use transform="translate(0 0.171875)" xlink:href="#DejaVuSans-43"/>
      <use transform="translate(70.78125 -16.234375)scale(0.7)" xlink:href="#DejaVuSans-Oblique-3b1"/>
      <use transform="translate(119.658203 0.171875)" xlink:href="#DejaVuSans-20"/>
      <use transform="translate(151.445312 0.171875)" xlink:href="#DejaVuSans-52"/>
      <use transform="translate(220.927734 0.171875)" xlink:href="#DejaVuSans-4d"/>
      <use transform="translate(307.207031 0.171875)" xlink:href="#DejaVuSans-53"/>
      <use transform="translate(370.683594 0.171875)" xlink:href="#DejaVuSans-44"/>
      <use transform="translate(447.685547 0.171875)" xlink:href="#DejaVuSans-20"/>
      <use transform="translate(479.472656 0.171875)" xlink:href="#DejaVuSans-66"/>
      <use transform="translate(514.677734 0.171875)" xlink:href="#DejaVuSans-72"/>
      <use transform="translate(555.791016 0.171875)" xlink:href="#DejaVuSans-6f"/>
      <use transform="translate(616.972656 0.171875)" xlink:href="#DejaVuSans-6d"/>
      <use transform="translate(714.384766 0.171875)" xlink:href="#DejaVuSans-20"/>
      <use transform="translate(746.171875 0.171875)" xlink:href="#DejaVuSans-Oblique-74"/>
      <use transform="translate(804.863281 0.171875)" xlink:href="#DejaVuSans-3d"/>
      <use transform="translate(908.134766 0.171875)" xlink:href="#DejaVuSans-30"/>
      <use transform="translate(971.757812 0.171875)" xlink:href="#DejaVuSans-2c"/>
      <use transform="translate(1003.544922 0.171875)" xlink:href="#DejaVuSans-20"/>
      <use transform="translate(1035.332031 0.171875)" xlink:href="#DejaVuSans-Oblique-3c1"/>
      <use transform="translate(1098.808594 -16.234375)scale(0.7)" xlink:href="#DejaVuSans-43"/>
      <use transform="translate(1148.355469 -27.71875)scale(0.49)" xlink:href="#DejaVuSans-Oblique-3b1"/>
      <use transform="translate(1185.303711 0.171875)" xlink:href="#DejaVuSans-20"/>
      <use transform="translate(1217.09082 0.171875)" xlink:href="#DejaVuSans-28"/>
      <use transform="translate(1256.104492 0.171875)" xlink:href="#DejaVuSans-Oblique-c5"/>
      <use transform="translate(1324.512695 0.171875)" xlink:href="#DejaVuSans-29"/>
     </g>
    </g>
   </g>
   <g id="line2d_12">
    <path clip-path="url(#p96e4f5ac95)" d="M 57.681818 307.8 
L 57.934948 307.8 
L 58.188078 185.99762 
L 58.441208 167.290496 
L 58.694339 160.724287 
L 58.947469 181.880596 
L 59.200599 151.473215 
L 59.453729 175.983623 
L 59.706859 176.271699 
L 59.959989 256.797139 
L 60.213119 159.349508 
L 60.466249 166.806451 
L 60.719379 183.217574 
L 60.97251 190.29942 
L 61.22564 166.828729 
L 61.47877 174.60416 
L 61.7319 207.835712 
L 61.98503 173.650605 
L 62.23816 198.256127 
L 62.49129 180.963865 
L 62.74442 181.457114 
L 62.99755 191.185571 
L 63.25068 156.365994 
L 63.503811 173.38544 
L 63.756941 152.762906 
L 64.010071 163.05055 
L 64.516331 169.485207 
L 64.769461 182.779156 
L 65.022591 150.13631 
L 65.275721 178.948767 
L 65.528851 179.882246 
L 65.781981 171.168084 
L 66.035112 172.591177 
L 66.288242 161.162851 
L 66.541372 186.456604 
L 66.794502 165.964711 
L 67.047632 168.336619 
L 67.300762 184.112615 
L 67.553892 169.625335 
L 67.807022 137.592796 
L 68.060152 132.981986 
L 68.313283 174.458622 
L 68.566413 195.368039 
L 69.072673 169.022669 
L 69.325803 137.761635 
L 69.578933 137.997259 
L 69.832063 165.755149 
L 70.085193 169.080865 
L 70.338323 122.371587 
L 70.591453 105.076761 
L 70.844584 117.705265 
L 71.097714 112.390457 
L 71.350844 114.868451 
L 71.603974 105.663515 
L 71.857104 107.451781 
L 72.110234 122.03185 
L 72.363364 120.106418 
L 72.616494 132.007197 
L 72.869624 119.014158 
L 73.122754 124.592125 
L 73.375885 120.150178 
L 73.629015 107.0593 
L 73.882145 139.458599 
L 74.135275 141.385119 
L 74.894665 107.620849 
L 75.147795 121.012429 
L 75.400925 114.195362 
L 75.654056 142.117224 
L 75.907186 128.580026 
L 76.160316 101.474788 
L 76.413446 131.240547 
L 76.666576 121.580401 
L 76.919706 119.999523 
L 77.172836 134.189278 
L 77.425966 138.144879 
L 77.679096 123.196264 
L 77.932226 115.145442 
L 78.185357 139.970989 
L 78.438487 149.156874 
L 78.691617 128.785494 
L 78.944747 134.028638 
L 79.197877 124.301671 
L 79.451007 127.666968 
L 79.704137 122.862111 
L 80.210397 98.646479 
L 80.463527 105.159349 
L 80.716658 104.50378 
L 80.969788 125.155374 
L 81.222918 118.288918 
L 81.476048 124.325991 
L 81.729178 106.583169 
L 81.982308 120.529325 
L 82.235438 101.031176 
L 82.488568 114.790246 
L 82.741698 116.256465 
L 82.994829 132.158361 
L 83.247959 111.999743 
L 83.501089 120.681423 
L 83.754219 91.182313 
L 84.007349 108.95148 
L 84.260479 114.373472 
L 84.513609 108.233801 
L 84.766739 139.396581 
L 85.019869 119.267101 
L 85.272999 111.53375 
L 85.77926 120.527738 
L 86.03239 113.473296 
L 86.28552 126.494467 
L 86.53865 125.081978 
L 86.79178 122.347163 
L 87.04491 131.970923 
L 87.29804 115.751529 
L 87.55117 123.025289 
L 87.8043 121.795192 
L 88.057431 99.822287 
L 88.310561 135.768254 
L 88.563691 123.503752 
L 88.816821 132.894662 
L 89.069951 127.68728 
L 89.323081 126.684927 
L 89.576211 118.623083 
L 89.829341 126.828701 
L 90.082471 115.720266 
L 90.335602 127.735605 
L 90.588732 119.699494 
L 90.841862 127.570471 
L 91.094992 125.405652 
L 91.348122 98.855002 
L 91.601252 127.175872 
L 91.854382 108.030938 
L 92.107512 106.450655 
L 92.613772 115.199522 
L 92.866903 98.740593 
L 93.120033 100.223545 
L 93.373163 116.650348 
L 93.626293 118.293054 
L 93.879423 113.329713 
L 94.132553 98.353222 
L 94.385683 100.075664 
L 94.638813 134.725967 
L 95.145073 101.97722 
L 95.398204 115.792789 
L 95.651334 116.822727 
L 95.904464 127.919521 
L 96.157594 119.151441 
L 96.410724 118.671273 
L 96.663854 125.320614 
L 96.916984 123.925859 
L 97.170114 137.890591 
L 97.676375 115.063931 
L 97.929505 136.204746 
L 98.182635 113.602915 
L 98.435765 131.824055 
L 98.688895 132.171773 
L 98.942025 146.108999 
L 99.195155 111.170621 
L 99.448285 130.687276 
L 99.701415 121.322402 
L 99.954545 156.300549 
L 100.207676 137.077916 
L 100.460806 150.796559 
L 100.713936 132.61796 
L 100.967066 133.766843 
L 101.220196 142.236206 
L 101.473326 101.931548 
L 101.726456 114.089172 
L 101.979586 115.679726 
L 102.232716 152.39832 
L 102.992107 103.833946 
L 103.245237 136.263185 
L 103.498367 109.473103 
L 103.751497 108.234324 
L 104.004627 161.900144 
L 104.257757 121.277153 
L 104.510887 158.61981 
L 104.764017 141.22071 
L 105.017148 108.384104 
L 105.270278 170.536439 
L 105.776538 124.5826 
L 106.282798 139.621521 
L 106.535928 136.206885 
L 106.789058 160.90718 
L 107.042188 113.852916 
L 107.295318 114.554495 
L 107.548449 111.230007 
L 107.801579 169.340115 
L 108.560969 122.508415 
L 108.814099 131.48172 
L 109.320359 87.863119 
L 109.573489 109.803796 
L 109.826619 114.549666 
L 110.07975 115.92582 
L 110.33288 106.398222 
L 110.58601 139.40999 
L 110.83914 113.325838 
L 111.09227 113.124059 
L 111.85166 139.249293 
L 112.10479 155.398867 
L 112.611051 115.285598 
L 112.864181 145.088245 
L 113.117311 115.867926 
L 113.370441 112.887372 
L 113.623571 135.910818 
L 114.129831 103.127469 
L 114.382961 150.958386 
L 114.636091 118.360426 
L 114.889222 134.131696 
L 115.142352 118.065023 
L 115.395482 153.954416 
L 115.648612 139.441363 
L 115.901742 76.166404 
L 116.154872 110.030191 
L 116.408002 161.560346 
L 116.661132 109.623873 
L 117.167392 137.100674 
L 117.420523 126.212687 
L 117.673653 122.054628 
L 117.926783 110.323717 
L 118.179913 163.189138 
L 118.433043 113.007681 
L 118.686173 126.550739 
L 118.939303 111.766868 
L 119.192433 112.249353 
L 119.445563 115.308635 
L 119.698694 110.597044 
L 119.951824 114.970981 
L 120.204954 124.183524 
L 120.458084 146.896791 
L 120.711214 105.36465 
L 120.964344 127.459234 
L 121.217474 98.838237 
L 121.470604 108.511599 
L 121.723734 170.307164 
L 121.976864 150.64194 
L 122.229995 148.559502 
L 122.483125 156.14053 
L 122.736255 168.005834 
L 122.989385 140.031609 
L 123.242515 124.612812 
L 123.495645 118.248668 
L 123.748775 115.302724 
L 124.001905 94.748274 
L 124.255035 121.586914 
L 124.761296 111.005082 
L 125.014426 121.996899 
L 125.267556 106.263655 
L 125.520686 157.022757 
L 125.773816 115.726625 
L 126.026946 92.607985 
L 126.280076 111.00589 
L 126.533206 120.731893 
L 126.786336 137.212911 
L 127.039467 109.401355 
L 127.292597 100.56762 
L 127.545727 121.532362 
L 128.051987 105.133079 
L 128.305117 110.558624 
L 128.558247 112.219613 
L 128.811377 127.951288 
L 129.064507 129.819989 
L 129.317637 122.411539 
L 129.570768 134.355408 
L 129.823898 128.449397 
L 130.077028 118.774874 
L 130.330158 124.80598 
L 130.583288 113.744906 
L 130.836418 117.277544 
L 131.089548 118.381602 
L 131.342678 125.586061 
L 131.595808 106.57097 
L 132.102069 103.638437 
L 132.355199 96.321441 
L 132.608329 115.49825 
L 132.861459 119.363449 
L 133.114589 109.313948 
L 133.367719 135.633258 
L 133.620849 146.865126 
L 133.873979 139.413502 
L 134.38024 102.58716 
L 134.63337 124.244883 
L 134.8865 99.50694 
L 135.13963 110.798824 
L 135.39276 108.566985 
L 135.64589 115.293294 
L 135.89902 128.021797 
L 136.15215 119.556174 
L 136.40528 137.26604 
L 136.65841 106.617084 
L 136.911541 124.236444 
L 137.164671 110.398621 
L 137.417801 106.254581 
L 137.670931 115.229864 
L 137.924061 135.107136 
L 138.177191 93.107649 
L 138.430321 117.259593 
L 138.683451 105.665069 
L 138.936581 119.368213 
L 139.189711 112.258249 
L 139.442842 110.234559 
L 139.695972 119.539752 
L 139.949102 85.814476 
L 140.202232 81.759779 
L 140.708492 163.339437 
L 140.961622 119.779398 
L 141.214752 109.759355 
L 141.721013 139.75705 
L 141.974143 146.607361 
L 142.227273 136.810127 
L 142.480403 87.79633 
L 142.733533 89.695659 
L 142.986663 104.736395 
L 143.239793 112.750558 
L 143.492923 104.475446 
L 143.746053 124.387878 
L 143.999183 109.00812 
L 144.252314 106.102118 
L 144.505444 111.942647 
L 144.758574 133.871274 
L 145.011704 132.124939 
L 145.264834 131.323664 
L 145.771094 94.812558 
L 146.024224 156.138807 
L 146.277354 144.111392 
L 146.530484 118.043854 
L 146.783615 114.130685 
L 147.036745 98.345857 
L 147.543005 107.743902 
L 147.796135 106.632674 
L 148.049265 106.598333 
L 148.302395 117.487609 
L 148.555525 112.834782 
L 148.808655 146.739955 
L 149.061786 96.407321 
L 149.314916 131.403908 
L 149.568046 142.847366 
L 149.821176 115.217263 
L 150.074306 134.783547 
L 150.327436 112.007163 
L 150.580566 105.226439 
L 150.833696 118.104496 
L 151.086826 96.438429 
L 151.339956 100.781849 
L 151.593087 114.943823 
L 151.846217 107.91608 
L 152.099347 167.929231 
L 152.352477 125.311047 
L 152.605607 121.134868 
L 152.858737 155.476021 
L 153.111867 124.352584 
L 153.364997 144.750221 
L 153.618127 130.122147 
L 153.871257 126.697179 
L 154.124388 138.283019 
L 154.377518 136.22602 
L 154.630648 138.472254 
L 154.883778 119.727591 
L 155.136908 114.818815 
L 155.390038 96.153429 
L 155.896298 143.615662 
L 156.149428 107.399506 
L 156.402559 109.328186 
L 156.655689 99.979579 
L 156.908819 104.473155 
L 157.161949 152.594301 
L 157.415079 122.512231 
L 157.668209 161.807526 
L 157.921339 175.616786 
L 158.174469 149.668914 
L 158.680729 153.56054 
L 159.18699 123.109209 
L 159.44012 169.532257 
L 160.19951 96.488958 
L 160.45264 140.976419 
L 160.9589 177.141654 
L 161.21203 178.783345 
L 161.465161 177.778071 
L 161.718291 146.194697 
L 161.971421 209.539735 
L 162.224551 173.270785 
L 162.477681 180.066557 
L 162.730811 162.332787 
L 162.983941 189.330398 
L 163.237071 162.037374 
L 163.490201 191.006308 
L 163.743332 143.017587 
L 163.996462 151.47322 
L 164.249592 133.373454 
L 164.502722 173.444269 
L 164.755852 157.870623 
L 165.008982 159.581105 
L 165.262112 166.407442 
L 165.768372 210.553261 
L 166.021502 221.634914 
L 166.274633 205.002951 
L 166.527763 235.150811 
L 166.780893 190.395141 
L 167.034023 215.835549 
L 167.287153 215.201717 
L 167.540283 217.093154 
L 168.046543 180.836631 
L 168.552803 231.522257 
L 168.805934 228.132031 
L 169.059064 250.951108 
L 169.565324 165.054227 
L 169.818454 182.655691 
L 170.071584 187.498663 
L 170.324714 184.552578 
L 170.577844 183.5412 
L 170.830974 157.934612 
L 171.590365 210.104871 
L 171.843495 190.451627 
L 172.096625 184.028241 
L 172.349755 232.357833 
L 172.602885 226.901373 
L 172.856015 177.283275 
L 173.109145 231.949063 
L 173.362275 189.336402 
L 173.615406 211.851667 
L 173.868536 250.689426 
L 174.121666 187.414875 
L 174.374796 156.031861 
L 174.881056 188.610524 
L 175.134186 193.211089 
L 175.640446 160.214614 
L 175.893576 132.651412 
L 176.146707 191.745326 
L 176.399837 203.491593 
L 176.652967 196.044503 
L 176.906097 138.490131 
L 177.159227 173.317093 
L 177.412357 157.999879 
L 177.665487 134.304384 
L 178.171747 158.424361 
L 178.931138 152.240811 
L 179.184268 149.075473 
L 179.437398 186.453718 
L 179.690528 179.853687 
L 180.196788 214.135974 
L 180.449918 170.873868 
L 180.703048 164.352427 
L 180.956179 175.344016 
L 181.209309 194.135034 
L 181.715569 189.485145 
L 181.968699 194.205739 
L 182.221829 163.579382 
L 182.474959 217.16318 
L 182.728089 181.814357 
L 182.981219 207.977921 
L 183.234349 170.119828 
L 183.48748 207.130489 
L 183.99374 151.764263 
L 184.24687 157.670048 
L 184.5 173.354868 
L 184.75313 174.424711 
L 185.00626 172.431844 
L 185.25939 165.018742 
L 185.51252 179.895145 
L 185.765651 171.451474 
L 186.018781 124.837937 
L 186.271911 133.320592 
L 186.525041 126.728765 
L 186.778171 123.662316 
L 187.031301 137.490632 
L 187.284431 106.605971 
L 187.537561 147.715151 
L 187.790691 147.582712 
L 188.043821 136.325818 
L 188.296952 132.282385 
L 188.550082 136.762894 
L 188.803212 113.945226 
L 189.056342 120.292852 
L 189.309472 145.908355 
L 189.562602 130.59729 
L 189.815732 150.77709 
L 190.068862 138.064841 
L 190.321992 106.108749 
L 190.575122 133.530431 
L 190.828253 134.642615 
L 191.081383 115.868402 
L 191.334513 125.55046 
L 191.587643 104.213748 
L 191.840773 121.103587 
L 192.093903 110.18718 
L 192.347033 120.458341 
L 192.600163 121.289928 
L 192.853293 107.453618 
L 193.106424 117.358312 
L 193.359554 112.467902 
L 193.865814 136.773099 
L 194.118944 123.901403 
L 194.372074 117.242222 
L 194.625204 129.283802 
L 194.878334 113.287358 
L 195.131464 110.608177 
L 195.384594 115.673351 
L 195.637725 103.895484 
L 195.890855 143.262119 
L 196.143985 117.656377 
L 196.397115 131.996424 
L 196.650245 128.215678 
L 196.903375 129.148253 
L 197.156505 142.295368 
L 197.409635 144.205986 
L 197.662765 144.222076 
L 197.915895 129.274013 
L 198.675286 150.560612 
L 199.181546 133.489633 
L 199.434676 125.309907 
L 199.687806 140.02363 
L 199.940936 136.381374 
L 200.194066 138.939601 
L 200.447197 123.915643 
L 200.700327 141.140922 
L 201.206587 125.178856 
L 201.459717 123.654348 
L 201.712847 153.850318 
L 201.965977 169.901379 
L 202.219107 163.042064 
L 202.472237 139.819401 
L 202.725367 146.440545 
L 203.231628 175.587542 
L 203.484758 146.740169 
L 203.991018 161.098841 
L 204.497278 147.601601 
L 204.750408 161.885005 
L 205.003538 121.822879 
L 205.256668 141.086478 
L 205.509799 138.739295 
L 205.762929 141.85739 
L 206.016059 159.71949 
L 206.269189 164.374035 
L 206.522319 132.10389 
L 206.775449 145.654125 
L 207.028579 126.023334 
L 207.534839 114.85926 
L 207.78797 120.136822 
L 208.0411 105.752001 
L 208.29423 132.767913 
L 208.54736 143.290375 
L 208.80049 148.068084 
L 209.05362 142.769641 
L 209.30675 154.786073 
L 209.55988 147.770244 
L 209.81301 136.736967 
L 210.06614 165.953161 
L 210.319271 145.220661 
L 210.572401 162.360913 
L 210.825531 168.18448 
L 211.078661 165.188985 
L 211.331791 142.669629 
L 211.584921 170.946797 
L 211.838051 162.002235 
L 212.091181 123.396649 
L 212.344311 159.155975 
L 212.597441 157.151291 
L 212.850572 122.799103 
L 213.356832 105.922853 
L 213.609962 109.309351 
L 213.863092 115.039277 
L 214.116222 103.322209 
L 214.369352 109.513717 
L 214.622482 134.834317 
L 215.128743 146.644082 
L 215.381873 135.741768 
L 215.635003 141.523891 
L 215.888133 113.569966 
L 216.141263 119.783964 
L 216.647523 146.467724 
L 216.900653 133.838182 
L 217.153783 112.74557 
L 217.406913 131.498568 
L 217.660044 124.980251 
L 217.913174 127.809057 
L 218.166304 123.623262 
L 218.419434 122.347932 
L 218.672564 126.498455 
L 218.925694 134.124174 
L 219.431954 116.324811 
L 219.685084 118.811268 
L 219.938214 124.949863 
L 220.191345 125.008469 
L 220.444475 122.86552 
L 220.697605 145.35978 
L 220.950735 129.451527 
L 221.203865 140.134865 
L 221.456995 132.746912 
L 221.963255 140.283771 
L 222.469516 144.821393 
L 222.975776 126.555498 
L 223.228906 135.649103 
L 223.482036 117.749625 
L 223.988296 128.355964 
L 224.241426 143.784606 
L 224.494556 134.792732 
L 225.000817 143.219325 
L 225.253947 124.306926 
L 225.507077 122.360985 
L 225.760207 125.379636 
L 226.013337 145.171931 
L 226.266467 131.118007 
L 226.772727 125.368183 
L 227.025857 141.532738 
L 227.278987 118.367146 
L 227.532118 119.547716 
L 227.785248 147.077305 
L 228.038378 137.79001 
L 228.291508 137.973177 
L 228.544638 154.883544 
L 228.797768 135.104754 
L 229.050898 138.907646 
L 229.304028 135.746619 
L 229.557158 135.965574 
L 229.810289 137.318183 
L 230.063419 121.849694 
L 230.316549 139.177787 
L 230.569679 134.7016 
L 231.075939 151.418529 
L 231.329069 130.921592 
L 231.582199 130.612843 
L 231.835329 117.405438 
L 232.088459 144.857232 
L 232.34159 121.377221 
L 232.59472 127.886065 
L 232.84785 150.791656 
L 233.10098 146.521288 
L 233.35411 147.294957 
L 233.60724 145.759072 
L 233.86037 89.454596 
L 234.1135 129.930718 
L 234.36663 127.695595 
L 234.61976 134.11364 
L 234.872891 112.31137 
L 235.126021 110.029366 
L 235.379151 143.254822 
L 235.632281 131.637845 
L 235.885411 142.61226 
L 236.138541 129.872338 
L 236.391671 139.535165 
L 236.644801 109.78491 
L 236.897931 136.085131 
L 237.151062 135.74762 
L 237.404192 124.016451 
L 237.657322 122.845781 
L 237.910452 145.98178 
L 238.163582 114.627044 
L 238.416712 114.749524 
L 238.669842 144.749448 
L 239.429232 118.76671 
L 239.682363 107.003769 
L 239.935493 123.270835 
L 240.188623 125.550962 
L 240.694883 144.113685 
L 240.948013 130.331747 
L 241.201143 87.052359 
L 241.454273 157.548874 
L 241.707403 104.992379 
L 241.960533 117.203872 
L 242.213664 142.372443 
L 242.466794 146.791959 
L 242.719924 132.523309 
L 242.973054 127.158034 
L 243.226184 128.855979 
L 243.479314 103.886978 
L 243.732444 119.25147 
L 243.985574 97.622165 
L 244.238704 110.668051 
L 244.491835 151.609015 
L 244.744965 113.610042 
L 244.998095 127.850565 
L 245.251225 84.375217 
L 245.504355 142.02606 
L 245.757485 146.376175 
L 246.010615 124.371477 
L 246.263745 133.739266 
L 246.516875 151.116948 
L 246.770005 144.683607 
L 247.023136 129.394471 
L 247.276266 123.92177 
L 247.529396 134.16059 
L 247.782526 122.878929 
L 248.288786 149.414493 
L 248.541916 148.185451 
L 248.795046 110.03222 
L 249.301306 149.097465 
L 249.554437 127.138546 
L 249.807567 140.19136 
L 250.060697 129.254218 
L 250.313827 133.864725 
L 250.566957 135.551775 
L 251.073217 137.251945 
L 251.326347 146.035155 
L 251.579477 120.753134 
L 251.832608 144.350193 
L 252.085738 138.829751 
L 252.338868 163.876037 
L 252.591998 148.456038 
L 252.845128 142.985401 
L 253.098258 132.878427 
L 253.351388 132.32292 
L 253.604518 132.096719 
L 253.857648 140.305582 
L 254.110778 130.768874 
L 254.363909 156.664868 
L 254.617039 118.993482 
L 254.870169 133.622452 
L 255.123299 99.514973 
L 255.376429 110.958907 
L 255.882689 150.647335 
L 256.135819 133.802745 
L 256.388949 139.255242 
L 256.642079 138.553327 
L 257.14834 122.599147 
L 257.40147 134.558149 
L 257.6546 114.878445 
L 257.90773 120.03881 
L 258.16086 165.984348 
L 258.41399 174.381672 
L 258.66712 138.415192 
L 258.92025 142.770603 
L 259.173381 127.749478 
L 259.426511 122.198539 
L 259.679641 134.020966 
L 259.932771 162.156125 
L 260.185901 127.585297 
L 260.692161 101.415103 
L 260.945291 55.8 
L 261.198421 121.565936 
L 261.451551 128.583868 
L 261.704682 111.627226 
L 261.957812 149.048026 
L 262.210942 150.381255 
L 262.464072 148.806699 
L 262.717202 142.104872 
L 262.970332 162.706422 
L 263.223462 97.170317 
L 263.476592 75.452912 
L 263.729722 133.554773 
L 263.982852 122.240963 
L 264.235983 129.903987 
L 264.489113 105.159164 
L 264.742243 107.614625 
L 264.995373 112.191138 
L 265.248503 136.752857 
L 265.501633 116.283381 
L 265.754763 135.180774 
L 266.007893 165.129602 
L 266.261023 126.276303 
L 266.514154 121.438816 
L 266.767284 126.996303 
L 267.020414 122.745973 
L 267.273544 109.728965 
L 267.526674 112.688507 
L 267.779804 93.243491 
L 268.032934 88.113057 
L 268.286064 97.370623 
L 268.539194 122.436026 
L 268.792324 79.155097 
L 269.045455 80.150675 
L 269.298585 110.235201 
L 269.551715 100.719374 
L 269.804845 108.91413 
L 270.057975 104.377386 
L 270.311105 107.148022 
L 270.564235 141.464073 
L 271.070495 118.852946 
L 271.323625 139.286015 
L 271.576756 123.565471 
L 271.829886 116.530628 
L 272.083016 120.074932 
L 272.336146 133.363367 
L 272.842406 109.690936 
L 273.601796 145.025142 
L 273.854927 130.397523 
L 274.108057 141.118132 
L 274.361187 132.660226 
L 274.614317 132.810899 
L 274.867447 141.055837 
L 275.120577 125.412763 
L 275.373707 125.641786 
L 275.626837 110.027469 
L 276.133097 139.660504 
L 276.386228 131.487949 
L 276.639358 118.768774 
L 276.892488 99.53924 
L 277.145618 100.005899 
L 277.398748 110.385302 
L 277.651878 82.318375 
L 277.905008 116.744992 
L 278.411268 97.301087 
L 278.664398 100.393888 
L 278.917529 111.242697 
L 279.170659 110.720416 
L 279.423789 108.840353 
L 279.676919 118.198281 
L 279.930049 115.465101 
L 280.183179 166.010672 
L 280.436309 136.276742 
L 280.689439 147.149497 
L 280.942569 141.8285 
L 281.1957 140.8743 
L 281.44883 155.586269 
L 281.70196 143.054241 
L 281.95509 137.292275 
L 282.20822 117.653028 
L 282.46135 124.467696 
L 282.71448 162.412651 
L 282.96761 106.837901 
L 283.22074 110.362572 
L 283.47387 110.512243 
L 283.980131 118.337761 
L 284.233261 99.313881 
L 284.739521 117.540197 
L 284.992651 120.986801 
L 285.245781 113.098056 
L 285.498911 118.298236 
L 286.005171 134.228526 
L 286.258302 108.507042 
L 286.511432 127.014071 
L 286.764562 109.112775 
L 287.017692 111.785259 
L 287.270822 109.042716 
L 287.523952 144.464768 
L 287.777082 109.447919 
L 288.030212 125.776644 
L 288.283342 131.649544 
L 288.536473 118.44087 
L 289.042733 139.793182 
L 289.295863 129.245504 
L 289.548993 141.610166 
L 289.802123 140.550112 
L 290.055253 146.204587 
L 290.561513 135.592223 
L 290.814643 123.003349 
L 291.067774 149.962918 
L 291.320904 121.6083 
L 291.574034 135.636274 
L 291.827164 142.80928 
L 292.080294 115.462232 
L 292.333424 123.609139 
L 292.586554 122.952298 
L 292.839684 122.758091 
L 293.092814 112.736912 
L 293.345944 135.010936 
L 293.599075 133.605745 
L 293.852205 130.607261 
L 294.105335 120.563893 
L 294.358465 119.837741 
L 294.611595 127.893363 
L 294.864725 126.926878 
L 295.117855 137.805621 
L 295.370985 103.971976 
L 295.624115 113.317709 
L 295.877246 113.658249 
L 296.130376 116.304339 
L 296.383506 130.720523 
L 296.636636 109.719239 
L 296.889766 136.437021 
L 297.396026 103.445412 
L 297.649156 104.925924 
L 297.902286 107.14435 
L 298.155416 104.694557 
L 298.408547 105.265934 
L 298.661677 120.53697 
L 298.914807 99.517491 
L 299.167937 108.428293 
L 299.421067 113.34785 
L 299.674197 128.698705 
L 299.927327 106.359693 
L 300.180457 127.413995 
L 300.433587 126.377132 
L 300.939848 101.666675 
L 301.192978 115.331263 
L 301.699238 104.018421 
L 302.205498 115.022777 
L 302.458628 116.083552 
L 302.711758 114.445852 
L 302.964888 131.943811 
L 303.218019 133.482905 
L 303.471149 137.688603 
L 303.977409 128.266083 
L 304.230539 107.636286 
L 304.483669 102.827458 
L 304.736799 91.25023 
L 304.989929 116.582901 
L 305.243059 121.87926 
L 305.496189 109.695991 
L 305.74932 107.109399 
L 306.00245 113.950738 
L 306.25558 114.48963 
L 306.50871 102.006271 
L 306.76184 104.495007 
L 307.01497 123.531585 
L 307.2681 111.329851 
L 307.52123 110.592675 
L 307.77436 114.66867 
L 308.02749 135.140146 
L 308.280621 135.082339 
L 308.533751 143.564773 
L 308.786881 165.560817 
L 309.293141 131.339235 
L 309.546271 145.696974 
L 309.799401 142.73626 
L 310.052531 156.819836 
L 310.305661 136.231147 
L 310.558792 139.925139 
L 310.811922 128.678625 
L 311.065052 129.066522 
L 311.318182 124.763055 
L 311.318182 124.763055 
" style="fill:none;stroke:#000000;stroke-linecap:square;stroke-width:2;"/>
   </g>
   <g id="patch_3">
    <path d="M 45 320.4 
L 45 43.2 
" style="fill:none;stroke:#000000;stroke-linecap:square;stroke-linejoin:miter;stroke-width:0.8;"/>
   </g>
   <g id="patch_4">
    <path d="M 324 320.4 
L 324 43.2 
" style="fill:none;stroke:#000000;stroke-linecap:square;stroke-linejoin:miter;stroke-width:0.8;"/>
   </g>
   <g id="patch_5">
    <path d="M 45 320.4 
L 324 320.4 
" style="fill:none;stroke:#000000;stroke-linecap:square;stroke-linejoin:miter;stroke-width:0.8;"/>
   </g>
   <g id="patch_6">
    <path d="M 45 43.2 
L 324 43.2 
" style="fill:none;stroke:#000000;stroke-linecap:square;stroke-linejoin:miter;stroke-width:0.8;"/>
   </g>
   <g id="legend_1">
    <g id="patch_7">
     <path d="M 278.6375 65.878125 
L 317 65.878125 
Q 319 65.878125 319 63.878125 
L 319 50.2 
Q 319 48.2 317 48.2 
L 278.6375 48.2 
Q 276.6375 48.2 276.6375 50.2 
L 276.6375 63.878125 
Q 276.6375 65.878125 278.6375 65.878125 
z
" style="fill:#ffffff;opacity:0.8;stroke:#cccccc;stroke-linejoin:miter;"/>
    </g>
    <g id="line2d_13">
     <path d="M 280.6375 56.298437 
L 300.6375 56.298437 
" style="fill:none;stroke:#000000;stroke-linecap:square;stroke-width:2;"/>
    </g>
    <g id="line2d_14"/>
    <g id="text_14">
     <!-- 1 -->
     <g transform="translate(308.6375 59.798437)scale(0.1 -0.1)">
      <use xlink:href="#DejaVuSans-31"/>
     </g>
    </g>
   </g>
  </g>
 </g>
 <defs>
  <clipPath id="p96e4f5ac95">
   <rect height="277.2" width="279" x="45" y="43.2"/>
  </clipPath>
 </defs>
</svg>
